<?xml version="1.0" encoding="iso-8859-1"?>
<!-- Generator: Adobe Illustrator 19.0.0, SVG Export Plug-In . SVG Version: 6.00 Build 0)  -->
<svg version="1.1" id="Capa_1" xmlns="http://www.w3.org/2000/svg" xmlns:xlink="http://www.w3.org/1999/xlink" x="0px" y="0px"
	 viewBox="0 0 512 512" style="enable-background:new 0 0 512 512;" xml:space="preserve">
<g>
	<g>
		<path d="M364.936,0c-46.552,0-84.426,37.874-84.426,84.426v185.191c0,4.512,3.658,8.17,8.17,8.17h13.617v198.809
			c0,19.521,15.883,35.404,35.404,35.404s35.404-15.883,35.404-35.404V8.17C373.106,3.658,369.448,0,364.936,0z M356.766,476.596
			c0,10.511-8.553,19.064-19.064,19.064s-19.064-8.553-19.064-19.064V310.468h38.128V476.596z M356.766,294.128h-38.128v-16.34
			h38.128V294.128z M356.766,261.447h-59.915V84.426c0-34.779,26.209-63.55,59.915-67.598V261.447z"/>
	</g>
</g>
<g>
	<g>
		<path d="M245.106,0c-4.512,0-8.17,3.658-8.17,8.17v89.872h-16.34V8.17c0-4.512-3.658-8.17-8.17-8.17s-8.17,3.658-8.17,8.17v89.872
			h-16.34V8.17c0-4.512-3.658-8.17-8.17-8.17s-8.17,3.658-8.17,8.17v89.872h-16.34V8.17c0-4.512-3.658-8.17-8.17-8.17
			s-8.17,3.658-8.17,8.17v155.234c0,22.211,12.914,42.297,32.681,51.676v272.409c0,13.516,10.995,24.511,24.511,24.511
			c13.516,0,24.511-10.995,24.511-24.511V215.08c19.766-9.379,32.681-29.464,32.681-51.676V8.17C253.277,3.658,249.619,0,245.106,0z
			 M236.936,163.404c0,17.279-10.945,32.759-27.234,38.518c-3.265,1.155-5.447,4.241-5.447,7.703v277.865
			c0,4.506-3.665,8.17-8.17,8.17c-4.506,0-8.17-3.665-8.17-8.17V209.625c0-3.462-2.182-6.549-5.447-7.703
			c-16.289-5.758-27.234-21.238-27.234-38.518v-49.021h16.34v2.723c0,4.512,3.658,8.17,8.17,8.17s8.17-3.658,8.17-8.17v-2.723h16.34
			v2.723c0,4.512,3.658,8.17,8.17,8.17s8.17-3.658,8.17-8.17v-2.723h16.34V163.404z"/>
	</g>
</g>
<g>
</g>
<g>
</g>
<g>
</g>
<g>
</g>
<g>
</g>
<g>
</g>
<g>
</g>
<g>
</g>
<g>
</g>
<g>
</g>
<g>
</g>
<g>
</g>
<g>
</g>
<g>
</g>
<g>
</g>
</svg>
